<svg width="50" height="50" xmlns="http://www.w3.org/2000/svg">
 <g>
  <title>Layer 1</title>
  <line stroke-linecap="undefined" stroke-linejoin="undefined" id="svg_3" y2="-37.44223" x2="-113.61384" y1="-41.40263" x1="-133.41582" stroke="#000" fill="none"/>
  <rect id="svg_1" height="27.88732" width="27.60563" y="17.05634" x="11.47887" stroke="#422C10" fill="#845335"/>
  <path id="svg_4" d="m11.14619,16.97152l14.22535,-10.42253l14.22535,10.42253l-28.4507,0z" stroke="#FFAAB8" fill="#BF7E96"/>
  <rect id="svg_5" height="10.42253" width="10.14084" y="26.35211" x="20.49295" stroke="#DDDDDD" fill="#9ACEE6"/>
  <ellipse ry="1.83099" rx="1.83099" id="svg_6" cy="18.88732" cx="27.39436" stroke="#546433" fill="#B8D078"/>
  <ellipse stroke="#546433" ry="1.23605" rx="1.01764" id="svg_7" cy="18.26137" cx="28.58422" fill="#B8D078"/>
  <ellipse stroke="#546433" ry="1.25156" rx="1.25156" id="svg_9" cy="21.59574" cx="27.25281" fill="#A0D58A"/>
  <g id="svg_13">
   <ellipse ry="1.4393" rx="1.25156" id="svg_10" cy="18.65457" cx="37.89111" stroke="#546433" fill="#A0D58A"/>
   <ellipse ry="1.37672" rx="1.12641" id="svg_11" cy="19.84355" cx="38.64205" stroke="#546433" fill="#A0D58A"/>
   <ellipse ry="1.06383" rx="0.12516" id="svg_12" cy="21.90864" cx="38.76721" stroke="#D1FFB4" fill="#A0D58A"/>
  </g>
  <g id="svg_20">
   <ellipse ry="1.75219" rx="1.68961" id="svg_14" cy="18.09136" cx="31.82103" stroke="#D1FFB4" fill="#A0D58A"/>
   <ellipse ry="0.8761" rx="1.00125" id="svg_15" cy="18.21652" cx="34.88736" stroke="#D1FFB4" fill="#A0D58A"/>
   <ellipse ry="1.06383" rx="1.06383" id="svg_16" cy="20.40676" cx="32.94743" stroke="#D1FFB4" fill="#A0D58A"/>
   <ellipse stroke="#D1FFB4" id="svg_17" cy="24.84981" cx="31.8836" fill="#A0D58A"/>
   <ellipse ry="0.8761" rx="0.37547" id="svg_18" cy="22.34668" cx="32.63454" stroke="#D1FFB4" fill="#A0D58A"/>
   <ellipse ry="0.68836" rx="0.5632" id="svg_19" cy="24.41176" cx="32.94743" stroke="#D1FFB4" fill="#A0D58A"/>
  </g>
  <line id="svg_21" y2="36.23905" x2="25.50062" y1="26.85231" x1="25.50062" stroke="#DDDDDD" fill="none"/>
  <g id="svg_28">
   <ellipse ry="3.69212" rx="3.81727" id="svg_22" cy="41.80851" cx="15.30037" fill="#729C62"/>
   <ellipse ry="1.4393" rx="3.19149" id="svg_23" cy="44.68711" cx="18.55444" fill="#729C62"/>
   <ellipse ry="1.56446" rx="5.44431" id="svg_24" cy="45.18773" cx="14.67459" fill="#729C62"/>
   <ellipse ry="2.69086" rx="2.19024" id="svg_25" cy="42.80976" cx="11.04506" fill="#729C62"/>
  </g>
  <ellipse ry="5.69462" rx="5.56946" id="svg_29" cy="3.38548" cx="1.78348" fill="#FFF093"/>
  <path id="svg_30" d="m10.55897,1.93974l0.57367,0l0.17727,-0.33464l0.17727,0.33464l0.57367,0l-0.46411,0.20682l0.17728,0.33464l-0.46411,-0.20682l-0.46411,0.20682l0.17728,-0.33464l-0.46411,-0.20682z" fill="#426373"/>
  <path id="svg_31" d="m-35.26831,42.99184l0.56913,0l0.17587,-0.54067l0.17587,0.54067l0.56913,0l-0.46044,0.33415l0.17588,0.54067l-0.46044,-0.33416l-0.46044,0.33416l0.17588,-0.54067l-0.46044,-0.33415z" fill="#426373"/>
  <path id="svg_32" d="m1.7173,11.95l0.38245,0l0.11818,-0.38244l0.11818,0.38244l0.38245,0l-0.30941,0.23636l0.11819,0.38244l-0.30941,-0.23637l-0.30941,0.23637l0.11819,-0.38244l-0.30941,-0.23636z" fill="#426373"/>
  <path id="svg_33" d="m8.69101,8.58768l0.47806,0l0.14772,-0.38245l0.14772,0.38245l0.47806,0l-0.38676,0.23636l0.14773,0.38245l-0.38676,-0.23637l-0.38676,0.23637l0.14773,-0.38245l-0.38676,-0.23636z" fill="#426373"/>
  <path id="svg_34" d="m22.88751,3.35739l0.57367,0l0.17727,-0.38245l0.17727,0.38245l0.57367,0l-0.46411,0.23636l0.17728,0.38245l-0.46411,-0.23637l-0.46411,0.23637l0.17728,-0.38245l-0.46411,-0.23636z" fill="#426373"/>
  <path id="svg_35" d="m5.45322,24.68583l0.56913,0l0.17587,-0.54067l0.17587,0.54067l0.56913,0l-0.46044,0.33415l0.17588,0.54067l-0.46044,-0.33416l-0.46044,0.33416l0.17588,-0.54067l-0.46044,-0.33415z" fill="#426373"/>
  <path id="svg_37" d="m38.58484,44.24878c-0.01286,-0.5021 0.24014,-0.99539 0.66573,-1.27613c0.69389,-0.51833 1.60973,-0.75453 2.47061,-0.61182c0.4263,-0.06465 0.61497,0.37031 0.465,0.70526c-0.23181,0.2228 -0.63501,0.0109 -0.93522,0.12614c-0.97331,0.12318 -1.93408,0.53908 -2.59189,1.26982c-0.00401,-0.07817 -0.10584,-0.13026 -0.07422,-0.21327l0,0zm0.01176,0.44557c0.05183,-0.3542 0.41123,-0.53861 0.66114,-0.75387c0.84129,-0.58521 1.8959,-0.81728 2.91573,-0.77792c0.02527,0.40356 -0.16795,0.78875 -0.40043,1.10845c-0.31923,0.17492 -0.71621,-0.02425 -1.05461,0.13498c-0.59352,0.1412 -1.25416,0.31912 -1.63404,0.82768c-0.13803,0.40839 -0.42979,-0.00728 -0.45236,-0.24764c-0.03209,-0.0955 -0.02762,-0.19361 -0.03543,-0.29167l0,0zm0.16295,-1.21115c0.0508,-0.4444 0.34881,-0.81186 0.62221,-1.15047c0.30818,-0.36088 0.72772,-0.62545 1.19918,-0.72237c0.37369,-0.09593 0.75883,-0.13584 1.14195,-0.17613c0.29055,0.21934 0.47538,0.60074 0.42669,0.96152c-0.22567,0.05618 -0.62467,-0.13375 -0.92896,-0.08744c-0.863,0.00799 -1.74525,0.34793 -2.32847,0.98213c-0.04856,0.0612 -0.09222,0.12606 -0.1326,0.19275l0,0zm-0.04626,1.75307c0.32271,0.25434 0.33329,0.69516 0.53162,1.02697c-0.23773,-0.30078 -0.44698,-0.65218 -0.53162,-1.02697zm0.25554,0.24231c0.10123,-0.27415 0.4186,-0.65946 0.68338,-0.6308c0.10585,0.26796 0.15171,0.55831 0.32375,0.79988c0.46193,0.8334 1.30728,1.55437 2.31225,1.57707c0.16435,0.03274 0.60003,-0.07603 0.58233,-0.03103c-0.42004,0.20275 -0.90635,0.24721 -1.36916,0.2309c-0.85953,-0.0561 -1.71568,-0.46184 -2.23241,-1.14832c-0.14624,-0.24655 -0.22938,-0.52273 -0.30014,-0.79766l0,-0.00004zm0.70748,-0.69901c0.23193,-0.10601 0.66645,-0.42848 0.84073,-0.16857c0.42532,0.82332 1.14437,1.52338 2.0296,1.85258c0.45961,0.1507 0.97666,0.14833 1.42486,-0.03975c-0.18693,0.28525 -0.49625,0.46819 -0.78775,0.63621c-0.74501,0.31254 -1.64557,0.14307 -2.27329,-0.34419c-0.60755,-0.4727 -1.08447,-1.14925 -1.23253,-1.90397l-0.00088,-0.01748l-0.00074,-0.01483l0,0l0,0zm0.3108,-2.96462c0.56384,-0.38116 1.26254,-0.55992 1.94405,-0.51244c-0.34886,0.21884 -0.7866,0.1357 -1.16914,0.25419c-0.26688,0.05711 -0.53177,0.1339 -0.77491,0.25825l0,0zm0.48685,2.68564c0.37122,-0.1727 0.79367,-0.1699 1.19486,-0.14626c0.24187,0.37024 0.41433,0.80058 0.78989,1.0675c0.43767,0.3841 1.07454,0.49252 1.626,0.31203c0.18938,-0.12575 0.39964,-0.04539 0.29621,0.20404c-0.1245,0.41415 -0.56656,0.59604 -0.97167,0.61613c-0.82879,0.08137 -1.58699,-0.38141 -2.14685,-0.94035c-0.32661,-0.32138 -0.60247,-0.69613 -0.78844,-1.11308l0,0zm1.25891,-3.07943c0.30208,-0.23555 0.71348,-0.02241 1.02257,0.09031c0.30742,0.25851 0.34862,0.68864 0.42986,1.05586c0.13583,0.86204 0.08089,1.78809 -0.32937,2.57497c-0.09804,0.27583 -0.37979,0.42525 -0.56038,0.12703c-0.20986,-0.22748 -0.37033,-0.49217 -0.52176,-0.75865c-0.08956,-0.255 0.2036,-0.43475 0.265,-0.6679c0.11963,-0.23246 0.15005,-0.49392 0.16348,-0.74834c0.05637,-0.3806 0.00091,-0.77543 -0.10093,-1.14396c-0.07142,-0.20392 -0.1874,-0.40142 -0.36846,-0.52932l0,0zm0.86824,4.07128c0.59465,-0.66027 0.68892,-1.59786 0.64416,-2.44196c-0.02725,-0.49768 -0.10426,-1.01199 -0.37128,-1.4454c0.27593,0.0084 0.5727,0.26313 0.7889,0.45073c0.61275,0.76572 0.79294,1.88589 0.32711,2.7657c-0.18324,0.35575 -0.43145,0.67686 -0.72283,0.95378c-0.24393,-0.0197 -0.49118,-0.11041 -0.66606,-0.28284l0,0zm0.67811,0.28665c0.6404,-0.60663 1.10416,-1.47849 0.96576,-2.37247c-0.0551,-0.41871 -0.21065,-0.82317 -0.44361,-1.17739c0.42665,0.2613 0.66389,0.72411 0.87727,1.15407c0.30675,0.75145 0.13999,1.66735 -0.40819,2.26794c-0.28152,0.15693 -0.67874,0.18095 -0.99123,0.12785zm1.05429,-0.14031c0.21969,-0.37717 0.46896,-0.75951 0.49185,-1.20698c0.03414,-0.14961 -0.01882,0.29354 -0.0372,0.38678c-0.05843,0.32928 -0.13472,0.68071 -0.34236,0.94938c-0.04777,-0.02604 -0.02646,-0.15288 -0.1123,-0.12917l0,0z" stroke="null" fill="#426373"/>
  <path id="svg_38" d="m16.16221,10.95444c0,0 0.42811,0.09685 0.52979,0.43165c0,0 0.09097,0.13005 0.06422,0.19922c-0.02676,0.06917 -0.06957,0.09131 -0.08027,0.09961c0,0 0.05351,-0.06364 -0.12843,-0.16602c0,0 -0.09365,-0.0166 -0.11238,-0.0332c-0.01873,-0.0166 -0.29433,-0.07194 -0.35319,0.06641c-0.05886,0.13835 -0.07224,0.37078 -0.06422,0.38184c0.00803,0.01107 0.28095,0.22136 0.30503,0.28223c0.02408,0.06087 0.15252,0.18539 0.2087,0.18262c0.05619,-0.00277 0.18997,-0.00277 0.22476,-0.04981c0.03478,-0.04704 0.13646,-0.05257 0.16054,0c0.02408,0.05257 0.01605,0.04981 0.01605,0.04981c0,0 0.08562,-0.01937 0.11238,0.04981c0.02676,0.06917 -0.04014,0.09961 -0.04816,0.09961c-0.00803,0 0.05084,-0.10515 -0.03211,-0.08301c0,0 -0.04816,0.00208 -0.04816,-0.0166c0,-0.01868 0.02809,0.09754 0,0.09961c0,0 -0.09432,-0.10791 -0.11238,-0.04981c0,0 -0.0602,0.01245 -0.08027,0.0166c-0.02007,0.00415 -0.01605,0.0166 -0.01605,0.0166c0,0 -0.05218,0.02075 -0.01605,0.08301c0,0 0,0.02283 -0.01605,0.03321c-0.01605,0.01038 0.01003,0.06018 0.08027,0.0166c0,0 0.01806,-0.0166 0.01605,0c-0.00201,0.0166 -0.07224,0.10584 -0.16054,-0.0166c0,0 -0.03211,-0.09339 0.01605,-0.11621c0.04816,-0.02283 -0.01605,-0.06848 -0.08027,-0.0332c0,0 -0.00401,0.06641 0.01605,0.08301c0.02007,0.0166 -0.03412,0.00208 -0.04816,-0.0166c-0.01405,-0.01868 -0.03211,0.03943 -0.03211,0.04981c0,0.01038 -0.01806,0.04566 -0.03211,0.03321c-0.01405,-0.01245 -0.14649,-0.02698 -0.14449,-0.0166c0.00201,0.01038 -0.06221,0.05396 -0.08027,0.03321c-0.01806,-0.02075 -0.1184,-0.12659 -0.12843,-0.11621c-0.01003,0.01038 0.06823,0.12659 0.11238,0.14942c0.04415,0.02283 0.22877,0.03735 0.28897,-0.0166c0,0 0.09231,-0.01868 0.09633,0c0,0 0.10435,0.04358 0.09633,0.06641c-0.00803,0.02283 -0.00803,0.01038 -0.01605,0c-0.00803,-0.01038 -0.07425,-0.04773 -0.08027,-0.0332c-0.00602,0.01453 0,0.0166 0,0.0166c0,0 0.08428,0.0249 0.08027,0.0332c0,0 0.09833,0.0415 0.08027,0.13281c0,0 -0.0301,0.02283 -0.03211,0c-0.00201,-0.02283 0.01204,-0.08508 -0.04816,-0.08301c0,0 -0.01003,0.0332 -0.04816,0.0166c-0.03813,-0.0166 0.02207,-0.05188 -0.1766,-0.0332c0,0 0.00803,0.03943 0.03211,0.04981c0.02408,0.01038 0.06422,0.01038 0.06422,0.04981c0,0 0.02609,0.0332 0,0.06641c0,0 -0.01605,0.01038 -0.01605,0c0,-0.01038 0.01605,-0.06018 -0.06422,-0.08301c-0.08027,-0.02283 -0.06422,-0.0166 -0.06422,-0.0166c0,0 0.01405,0.09961 -0.01605,0.09961c-0.0301,0 0.02007,0.06226 0.08027,0.0332c0,0 0.00602,-0.0249 0.01605,-0.0166c0.01003,0.0083 -0.05017,0.12866 -0.16054,-0.0166c0,0 -0.03612,-0.07678 0,-0.09961c0,0 0.02408,-0.07678 -0.09633,-0.04981c0,0 -0.05017,0.0083 -0.04816,0c0.00201,-0.0083 -0.00803,0.03943 0,0.04981c0.00803,0.01038 -0.09432,-0.02283 -0.09633,-0.0332l-0.03211,0c0,0 0.01873,0.09685 0.03211,0.09961c0.01338,0.00277 -0.06154,-0.04704 -0.08027,-0.08301c0,0 0,0.06917 0.01605,0.08301c0.01605,0.01384 -0.07224,-0.07471 -0.06422,-0.08301c0,0 0.00268,0.08854 0.03211,0.13281c0.02943,0.04427 -0.06422,-0.0415 -0.08027,-0.06641c0,0 -0.01605,0.01107 0,0.0332c0.01605,0.02214 -0.05351,-0.02214 -0.06422,-0.08301c0,0 -0.04549,-0.03874 -0.06422,-0.04981c0,0 0.00268,0.09408 0.01605,0.09961c0,0 -0.03746,-0.03044 -0.04816,-0.06641c0,0 -0.0214,0.0332 -0.01605,0.04981c0,0 -0.06154,-0.07194 -0.08027,-0.13281c-0.01873,-0.06087 -0.01605,0.0166 -0.01605,0.0166c0,0 -0.03746,-0.00554 -0.06422,-0.11621c0,0 -0.15519,0.16878 -0.2087,0.18262c-0.05351,0.01383 0.06422,-0.06641 0.06422,-0.06641c0,0 -0.0883,0.02767 -0.09633,0.04981c0,0 0.00803,-0.03044 0.04816,-0.06641c0.04014,-0.03597 -0.04816,-0.0166 -0.04816,-0.0166c0,0 -0.01873,-0.00554 -0.01605,-0.18262c0,0 -0.12041,0.13282 -0.19265,0.13282c-0.07224,0 0.06689,-0.05534 0.08027,-0.09961c0.01338,-0.04427 -0.02943,-0.03044 -0.04816,-0.0166c-0.01873,0.01384 -0.15787,0.09685 -0.16054,0.11621c-0.00268,0.01937 -0.01605,-0.0332 -0.01605,-0.0332c0,0 -0.03211,0.0166 -0.06422,0.0166c-0.03211,0 0.09365,-0.06087 0.11238,-0.09961c0.01873,-0.03874 -0.17392,0.06917 -0.24081,0.11621c0,0 -0.05619,0.01937 -0.06422,0c-0.00803,-0.01937 0.09633,-0.09408 0.09633,-0.09961c0,-0.00553 0.03746,-0.05257 -0.03211,-0.0166c-0.06957,0.03597 -0.16054,0.0083 -0.22476,0.0332c-0.06422,0.0249 -0.13378,0.10238 -0.22476,0.09961c-0.09097,-0.00277 -0.09095,0.11621 -0.25687,0.11621c-0.09633,0 -0.05619,0.03874 -0.09633,0.0332c-0.04014,-0.00553 0.04816,-0.04981 0.04816,-0.04981c0,0 -0.09633,0.0332 -0.11238,0.0332c-0.01605,0 -0.0883,0.00277 0.08027,-0.06641c0,0 -0.12308,0 -0.08027,-0.0166c0.04281,-0.0166 0.14984,-0.04981 0.14449,-0.06641c-0.00535,-0.0166 -0.11505,-0.01384 -0.08027,-0.0332c0.03478,-0.01937 0.22476,-0.09131 0.1766,-0.09961c-0.04816,-0.0083 -0.11773,-0.01107 -0.08027,-0.0332c0.03746,-0.02214 0.49768,-0.07471 0.5619,-0.13281c0.06422,-0.05811 0.23011,-0.22689 0.27292,-0.23243c0.04281,-0.00554 0,-0.04704 -0.03211,-0.03321c-0.03211,0.01384 -0.06154,-0.0083 -0.04816,-0.09961c0.01338,-0.09131 -0.1377,0.20023 -0.22476,0.09961c-0.04549,-0.05257 -0.0107,-0.09131 -0.06422,-0.08301c-0.05351,0.0083 -0.05084,-0.06087 -0.06422,-0.0332c-0.01338,0.02767 -0.12576,0.19922 -0.1766,0.18262c-0.05084,-0.0166 -0.01338,-0.02767 -0.04816,-0.0332c-0.03478,-0.00554 -0.05886,-0.0166 -0.06422,-0.04981c-0.00535,-0.0332 -0.03746,0.02214 -0.04816,-0.0332c-0.0107,-0.05534 -0.01873,-0.12451 -0.06422,-0.06641c-0.04549,0.05811 -0.06154,0.01937 -0.06422,0c-0.00268,-0.01937 -0.099,0.01107 -0.09632,-0.04981c0.00267,-0.06087 -0.09365,0.01937 -0.08027,-0.04981c0.01338,-0.06917 -0.08137,-0.00938 -0.06422,-0.06641c0.03746,-0.12451 -0.12843,-0.01107 -0.11238,-0.06641c0.01605,-0.05534 -0.0776,-0.01107 -0.06422,-0.06641c0.01338,-0.05534 -0.08909,-0.03612 -0.08027,-0.08301c0.01873,-0.09961 -0.09632,-0.03044 -0.08027,-0.11621c0.01605,-0.08577 -0.07306,-0.00058 -0.06422,-0.06641c0.01338,-0.09961 -0.11468,-0.06344 -0.08027,-0.13281c0.05351,-0.10791 -0.05503,-0.06152 -0.03211,-0.11621c0.03478,-0.08301 -0.22349,0.00921 -0.16054,-0.13282c0.02943,-0.06641 -0.1748,-0.11062 -0.08027,-0.16602c0.16054,-0.09408 -0.24616,-0.04704 -0.04816,-0.19922c0.18462,-0.08854 0.19594,-0.09688 -0.03211,-0.08301c-0.09097,0.00553 -0.22743,-0.12451 -0.09632,-0.13282c0.13111,-0.0083 0.39868,-0.07471 0.09632,-0.09961c-0.30235,-0.0249 -0.31306,-0.13835 -0.19265,-0.13281c0.12041,0.00553 0.59133,0.00553 0.46557,-0.0332c-0.12576,-0.03874 -0.70128,-0.13341 -0.48162,-0.23243c0.10435,-0.04704 0.83966,0.20307 0.62611,0.0332c-0.03478,-0.02767 -0.3746,-0.12728 -0.49768,-0.26563c-0.12308,-0.13835 -0.099,-0.15772 -0.03211,-0.13281c0.06689,0.0249 0.84284,0.39014 0.72244,0.26563c-0.02141,-0.02214 -0.46557,-0.24073 -0.52979,-0.43165c-0.06422,-0.19092 -0.00268,-0.14112 0.04816,-0.08301c0.05084,0.05811 0.78097,0.61299 0.65822,0.43165c-0.03746,-0.05534 -0.36389,-0.2767 -0.43346,-0.49806c-0.06957,-0.22136 -0.01605,-0.16048 0.03211,-0.09961c0.04816,0.06087 0.79215,0.89022 0.67427,0.59767c-0.02676,-0.06641 -0.26222,-0.27393 -0.28897,-0.46485c-0.02676,-0.19092 0.04281,-0.11898 0.08027,-0.04981c0.03746,0.06917 0.56457,0.92971 0.57795,0.78029c0,0 0.00268,0.00277 0.01605,0c0.01338,-0.00277 -0.0107,-0.08024 0.01605,-0.06641c0,0 0.0107,-0.06087 0.03211,-0.04981c0.02141,0.01107 0.04281,0.00277 0.04816,-0.06641c0.00535,-0.06917 0.16322,0.01107 0.2087,0.36524c0,0 0.03211,0.03593 0.03211,0.11621c0,0.04151 0.19265,0.24349 0.30503,0.23243c0.11238,-0.01107 0.27292,0.23243 0.32108,0.24903c0.04816,0.0166 0.15519,0.11621 0.32108,0.0166c0.16589,-0.09961 0.32911,-0.13281 0.19265,-0.14942c-0.13646,-0.0166 -0.1097,-0.07194 -0.04816,-0.08301c0.06154,-0.01107 0.32911,-0.0166 0.24081,-0.06641c-0.0883,-0.04981 -0.16457,-0.31591 -0.04816,-0.24903c0.04816,0.02767 0.21921,0.27354 0.19265,0.09961c-0.00803,-0.05257 -0.11238,-0.11621 -0.08027,-0.29883c0.03211,-0.18262 0.07662,-0.03733 0.08027,-0.0166c0.00535,0.03044 0.13516,0.40833 0.16054,0.21582c0.00803,-0.06087 -0.05886,-0.14112 -0.03211,-0.36524c0.02676,-0.22412 0.06422,0 0.06422,0c0,0 0.07634,0.22952 0.06422,0.34864c-0.00535,0.05257 0.06957,0.0332 0.06422,-0.06641c-0.00535,-0.09961 -0.04549,-0.3182 -0.01605,-0.31544c0.02943,0.00277 0.11762,0.14819 0.09633,0.26563c-0.00803,0.04427 0.11505,0.08854 -0.01605,0.18262c-0.13111,0.09408 -0.27292,0.28223 -0.27292,0.28223c0,0 0.03172,0.1216 -0.12843,0.18262c-0.10168,0.03874 -0.01605,0.11621 -0.01605,0.11621z" stroke="null" fill="#8B4D4B"/>
  <path id="svg_39" d="m25.79238,43.38432c0.02926,-0.00548 0.24177,0.21802 0.24578,0.26305c0.00585,0.06576 0.14044,0.06576 0.17555,0.06576c0.03511,0 0.28674,0.14249 0.45644,0.29593c0.1697,0.15345 0.66711,0.01096 0.70222,0c0.03511,-0.01096 1.63851,-0.30141 2.07155,-0.09864c0.20797,0.09738 0.61791,-0.24667 0.6715,-0.96178c-0.02194,-0.47678 -0.47978,-0.49467 -0.57494,-0.34937c-0.07022,0.06439 -0.19018,0.04521 -0.16092,-0.07261c0.02661,-0.0789 0.20481,-0.32196 0.53398,-0.2151c0.27905,0.0906 0.44046,0.3085 0.50033,0.62886c0.0395,0.69051 -0.5135,1.20017 -0.5135,1.20017c0,0 0.04389,0.18085 0.10533,0.29593c0.06144,0.11509 0.079,0.50966 0.07022,0.55898c-0.00878,0.04932 0.26333,0.3206 0.35111,0.32881c0.07607,0.03288 0.28967,0.64119 0.29844,0.77271c0.079,0.03699 -0.00878,0.22195 -0.10533,0.24661c-0.09656,0.02466 -0.12289,-0.14797 -0.12289,-0.23017c0,-0.0822 -0.09656,-0.46856 -0.36867,-0.50966c-0.27211,-0.0411 -0.50911,-0.18085 -0.50911,-0.18085c0,0 -0.01756,0.08221 -0.05267,0.11509c0,0 0.08778,0.13975 0.08778,0.34525c-0.00878,0.09042 -0.14922,0.36992 -0.24578,0.39458c0,0 -0.158,0.23017 -0.22822,0.23017c-0.07022,0 -0.19311,0.0822 -0.38622,-0.01644c0,0 0.03511,-0.20551 0.21067,-0.14797c0,0 0.41255,-0.29593 0.21066,-0.42746c0,0 -0.12289,-0.16441 -0.19311,-0.23017c-0.07022,-0.06576 -0.14044,-0.17263 -0.158,-0.29593c0,0 -0.58811,-0.03288 -0.73733,-0.06576c-0.14922,-0.03288 -0.42133,0.04932 -0.42133,0.09864c0,0.04932 0.04389,0.51788 0.12289,0.60831c0,0 0.02633,0.11509 0,0.14797c-0.02633,0.03288 0.09656,0.30415 -0.14044,0.27949c-0.22383,0.03699 -0.33355,-0.12742 -0.07022,-0.18085c0.01317,-0.17674 -0.33356,-0.92479 -0.56178,-0.82204c-0.29844,0.0411 -0.1975,-0.2014 -0.49155,0.18085c-0.30722,0.33703 -0.83389,0.57542 -0.86022,0.72339c0,0 -0.158,-0.03288 -0.19311,0.0822c0,0 -0.41255,0.04932 -0.38622,-0.01644c0.02633,-0.06576 0.04828,-0.2014 0.21067,-0.14797c0,0 0.36867,-0.13564 0.71977,-0.83848c0,0 -0.04389,-0.18085 0.01756,-0.32881c0.06145,-0.14797 -0.03511,-0.75627 -0.474,-0.72339c0,0 -0.16385,0.0548 -0.26333,-0.19729c0,0 -0.04096,-0.04932 0,-0.09864c0.04096,-0.04932 0.14044,-0.12605 0.158,-0.18085c0.01756,-0.0548 0.05852,-0.13701 0.28089,-0.21373c0.10533,-0.10275 -0.0117,-0.30689 0.01756,-0.31237z" stroke="null" fill="#999999"/>
  <path stroke="null" id="svg_40" d="m24.4219,41.1286l0.32569,0c0,0 0.25332,-0.01684 0.32569,0.20203c0.12892,0.15783 0.3698,0.08839 0.43426,0.15152c0.07125,0 0.23522,0.02946 0.21713,0.10101c-0.01809,0.07155 -0.07238,0.08418 -0.05428,0.10101c0.01809,0.01684 0.06785,0.36197 -0.40712,0.35355c0,0 -0.04976,0.10101 -0.27141,0c0,0 -0.04976,-0.03788 -0.1357,0.02525c-0.08595,0.06313 -0.25784,0.10943 -0.29855,0.10101c-0.04071,-0.00842 -0.29855,0.39985 -0.29855,0.98489c0,0.58504 -0.34831,0.9891 -0.4614,1.01014c0,0 -0.2748,0.81443 -0.28498,1.54046c0,0 -0.06785,0.30725 0.2307,0.30304c0.16115,0.12469 0.2324,0.20992 0.13571,0.20203c0,0 -0.03732,0.05682 -0.10856,0.05051c-0.03085,-0.01025 0.24936,0.18625 0.13571,0.17678c0,0 -0.04976,0.13468 -0.24427,0.05051c0,0 -0.29855,0.02525 -0.32569,-0.15152c-0.02714,-0.17678 -0.04071,-0.46403 -0.16285,-0.42931c0,0 -0.01809,-1.40999 -0.16285,-1.51521c0,0 -0.71905,0.05523 -1.54705,-0.40406c-0.23522,-0.13048 -0.47497,-0.32409 -0.51568,0.12627c-0.04071,0.45036 -0.769,0.82495 -0.86852,1.0859c-0.09952,0.26095 -0.1538,0.16836 -0.1357,0.78286c0,0 0.17189,-0.03788 0.29855,0.10101c0.08142,0.07576 -0.02714,0.07576 -0.02714,0.07576c0,0 0.06333,0.05892 -0.13571,0.05051c0,0 -0.02714,0.02841 -0.16285,0c0,0 -0.22618,0.01263 -0.18999,-0.15152c0,0 -0.01357,-0.93438 -0.08142,-0.88387c-0.06785,0.05051 -0.41616,0.34513 -0.40712,0.98489c0,0 0.1538,0.02104 0.16285,0.17678c0,0 0.0769,0.07997 -0.02714,0.10101c0,0 -0.14588,0.03472 -0.18999,0c0,0 -0.18547,0.05892 -0.18999,-0.15152c-0.00452,-0.21045 0.14927,-0.94069 0.08142,-1.11115c0,0 0.58354,-0.31567 0.67853,-1.28793c0,0 -0.27141,0.82495 -1.13993,0.68184c0,0 -0.06333,-0.02525 0.02714,-0.05051c0.09047,-0.02525 0.80519,0.06313 0.97708,-0.75761c0.12553,-0.58715 0.03053,-0.65028 0.43426,-0.88387c0.54282,-0.48297 1.89536,0.00421 2.307,-0.15152c0.37998,-0.17678 0.39355,-0.17993 0.81423,-0.30304c0.43087,-0.2115 0.35736,-0.45456 0.67853,-0.78286c0.24597,-0.30778 0.24879,-0.27358 0.27141,-0.30304c0.02262,-0.02946 0.00452,-0.16836 0.29855,-0.20203z" fill="#444444"/>
 </g>

</svg>